<mxfile host="app.diagrams.net" modified="2022-06-29T03:41:44.274Z" agent="5.0 (Windows NT 10.0; Win64; x64) AppleWebKit/537.36 (KHTML, like Gecko) Chrome/101.0.0.0 Safari/537.36" etag="97NSWQ8Vx62Pn8TEULQz" version="18.0.1" type="github">
  <diagram id="S-W2OL8QPShh_w-QYvUN" name="Page-1">
    <mxGraphModel dx="1886" dy="818" grid="1" gridSize="10" guides="1" tooltips="1" connect="1" arrows="1" fold="1" page="1" pageScale="1" pageWidth="1200" pageHeight="1600" math="0" shadow="0">
      <root>
        <mxCell id="0" />
        <mxCell id="1" parent="0" />
        <mxCell id="4_R9WV05cplaqw-ET_kS-66" style="edgeStyle=orthogonalEdgeStyle;curved=0;rounded=1;sketch=0;orthogonalLoop=1;jettySize=auto;html=1;entryX=0.5;entryY=0;entryDx=0;entryDy=0;entryPerimeter=0;fontColor=#000000;endArrow=block;endFill=1;strokeWidth=2;" edge="1" parent="1" source="4_R9WV05cplaqw-ET_kS-4" target="4_R9WV05cplaqw-ET_kS-65">
          <mxGeometry relative="1" as="geometry" />
        </mxCell>
        <mxCell id="4_R9WV05cplaqw-ET_kS-4" value="&lt;font color=&quot;#000000&quot;&gt;H5 / APP&lt;br&gt;&lt;/font&gt;" style="sketch=0;outlineConnect=0;fillColor=none;dashed=0;verticalLabelPosition=bottom;verticalAlign=top;align=center;html=1;fontSize=12;fontStyle=0;aspect=fixed;shape=mxgraph.aws4.resourceIcon;resIcon=mxgraph.aws4.mobile_client;" vertex="1" parent="1">
          <mxGeometry x="339" y="30" width="110" height="110" as="geometry" />
        </mxCell>
        <mxCell id="4_R9WV05cplaqw-ET_kS-68" style="edgeStyle=orthogonalEdgeStyle;rounded=0;sketch=0;orthogonalLoop=1;jettySize=auto;html=1;entryX=0.5;entryY=0;entryDx=0;entryDy=0;entryPerimeter=0;fontColor=#000000;endArrow=block;endFill=1;strokeWidth=2;" edge="1" parent="1" source="4_R9WV05cplaqw-ET_kS-7" target="4_R9WV05cplaqw-ET_kS-65">
          <mxGeometry relative="1" as="geometry">
            <Array as="points">
              <mxPoint x="558" y="170" />
              <mxPoint x="395" y="170" />
            </Array>
          </mxGeometry>
        </mxCell>
        <mxCell id="4_R9WV05cplaqw-ET_kS-7" value="" style="shape=image;html=1;verticalAlign=top;verticalLabelPosition=bottom;imageAspect=0;aspect=fixed;image=https://cdn1.iconfinder.com/data/icons/icons-for-a-site-1/64/advantage_payment_way-128.png;" vertex="1" parent="1">
          <mxGeometry x="517" y="56" width="84" height="84" as="geometry" />
        </mxCell>
        <mxCell id="4_R9WV05cplaqw-ET_kS-8" value="大屏 / 主站 / PC" style="text;html=1;align=center;verticalAlign=middle;resizable=0;points=[];autosize=1;strokeColor=none;fillColor=none;" vertex="1" parent="1">
          <mxGeometry x="189" y="140" width="100" height="20" as="geometry" />
        </mxCell>
        <mxCell id="4_R9WV05cplaqw-ET_kS-9" value="Pay" style="text;html=1;align=center;verticalAlign=middle;resizable=0;points=[];autosize=1;strokeColor=none;fillColor=none;" vertex="1" parent="1">
          <mxGeometry x="539" y="140" width="40" height="20" as="geometry" />
        </mxCell>
        <mxCell id="4_R9WV05cplaqw-ET_kS-11" value="" style="rounded=1;whiteSpace=wrap;html=1;fillColor=none;strokeWidth=3;fontSize=10;spacing=3;arcSize=2;" vertex="1" parent="1">
          <mxGeometry x="112.5" y="260" width="607.5" height="480" as="geometry" />
        </mxCell>
        <mxCell id="4_R9WV05cplaqw-ET_kS-70" style="edgeStyle=orthogonalEdgeStyle;rounded=0;sketch=0;orthogonalLoop=1;jettySize=auto;html=1;entryX=0;entryY=0.64;entryDx=0;entryDy=0;entryPerimeter=0;fontColor=#000000;endArrow=block;endFill=1;strokeWidth=2;" edge="1" parent="1" source="4_R9WV05cplaqw-ET_kS-12" target="4_R9WV05cplaqw-ET_kS-13">
          <mxGeometry relative="1" as="geometry" />
        </mxCell>
        <mxCell id="4_R9WV05cplaqw-ET_kS-72" style="edgeStyle=orthogonalEdgeStyle;rounded=0;sketch=0;orthogonalLoop=1;jettySize=auto;html=1;entryX=0.5;entryY=0;entryDx=0;entryDy=0;fontColor=#000000;endArrow=block;endFill=1;strokeWidth=2;" edge="1" parent="1" source="4_R9WV05cplaqw-ET_kS-12" target="4_R9WV05cplaqw-ET_kS-15">
          <mxGeometry relative="1" as="geometry">
            <Array as="points">
              <mxPoint x="394" y="370" />
              <mxPoint x="345" y="370" />
            </Array>
          </mxGeometry>
        </mxCell>
        <mxCell id="4_R9WV05cplaqw-ET_kS-77" value="9999" style="edgeLabel;html=1;align=center;verticalAlign=middle;resizable=0;points=[];fontColor=#000000;" vertex="1" connectable="0" parent="4_R9WV05cplaqw-ET_kS-72">
          <mxGeometry x="0.0496" y="-1" relative="1" as="geometry">
            <mxPoint x="11" as="offset" />
          </mxGeometry>
        </mxCell>
        <mxCell id="4_R9WV05cplaqw-ET_kS-73" style="edgeStyle=orthogonalEdgeStyle;rounded=0;sketch=0;orthogonalLoop=1;jettySize=auto;html=1;fontColor=#000000;endArrow=block;endFill=1;strokeWidth=2;" edge="1" parent="1" source="4_R9WV05cplaqw-ET_kS-12" target="4_R9WV05cplaqw-ET_kS-16">
          <mxGeometry relative="1" as="geometry">
            <Array as="points">
              <mxPoint x="394" y="370" />
              <mxPoint x="460" y="370" />
            </Array>
          </mxGeometry>
        </mxCell>
        <mxCell id="4_R9WV05cplaqw-ET_kS-76" value="20004" style="edgeLabel;html=1;align=center;verticalAlign=middle;resizable=0;points=[];fontColor=#000000;" vertex="1" connectable="0" parent="4_R9WV05cplaqw-ET_kS-73">
          <mxGeometry x="-0.3637" relative="1" as="geometry">
            <mxPoint as="offset" />
          </mxGeometry>
        </mxCell>
        <mxCell id="4_R9WV05cplaqw-ET_kS-12" value="gclb" style="rhombus;whiteSpace=wrap;html=1;rounded=1;fontSize=10;strokeWidth=2;fillColor=none;arcSize=4;" vertex="1" parent="1">
          <mxGeometry x="357.5" y="293.75" width="72.5" height="62.5" as="geometry" />
        </mxCell>
        <mxCell id="4_R9WV05cplaqw-ET_kS-13" value="storage" style="rounded=0;whiteSpace=wrap;html=1;fontSize=10;strokeWidth=3;fillColor=none;" vertex="1" parent="1">
          <mxGeometry x="501" y="293.75" width="100" height="50" as="geometry" />
        </mxCell>
        <mxCell id="4_R9WV05cplaqw-ET_kS-14" value="" style="rounded=1;whiteSpace=wrap;html=1;fillColor=none;strokeWidth=3;fontSize=10;spacing=3;arcSize=2;" vertex="1" parent="1">
          <mxGeometry x="170" y="380" width="495" height="270" as="geometry" />
        </mxCell>
        <mxCell id="4_R9WV05cplaqw-ET_kS-15" value="Ngix集群" style="rounded=1;whiteSpace=wrap;html=1;fontSize=10;strokeWidth=2;fillColor=none;dashed=1;" vertex="1" parent="1">
          <mxGeometry x="290" y="400" width="110" height="30" as="geometry" />
        </mxCell>
        <mxCell id="4_R9WV05cplaqw-ET_kS-16" value="网关集群" style="rounded=0;whiteSpace=wrap;html=1;fontSize=10;strokeWidth=2;fillColor=none;" vertex="1" parent="1">
          <mxGeometry x="450" y="400" width="117.5" height="30" as="geometry" />
        </mxCell>
        <mxCell id="4_R9WV05cplaqw-ET_kS-17" value="redis" style="rounded=0;whiteSpace=wrap;html=1;fontSize=10;strokeWidth=2;fillColor=none;" vertex="1" parent="1">
          <mxGeometry x="200" y="450" width="60" height="30" as="geometry" />
        </mxCell>
        <mxCell id="4_R9WV05cplaqw-ET_kS-18" value="mq" style="rounded=0;whiteSpace=wrap;html=1;fontSize=10;strokeWidth=2;fillColor=none;" vertex="1" parent="1">
          <mxGeometry x="200" y="500" width="60" height="30" as="geometry" />
        </mxCell>
        <mxCell id="4_R9WV05cplaqw-ET_kS-19" value="config" style="rounded=0;whiteSpace=wrap;html=1;fontSize=10;strokeWidth=2;fillColor=none;" vertex="1" parent="1">
          <mxGeometry x="200" y="550" width="60" height="30" as="geometry" />
        </mxCell>
        <mxCell id="4_R9WV05cplaqw-ET_kS-20" value="......" style="rounded=0;whiteSpace=wrap;html=1;fontSize=10;strokeWidth=2;fillColor=none;" vertex="1" parent="1">
          <mxGeometry x="200" y="600" width="60" height="30" as="geometry" />
        </mxCell>
        <mxCell id="4_R9WV05cplaqw-ET_kS-21" value="service1" style="rounded=0;whiteSpace=wrap;html=1;fontSize=10;strokeWidth=2;fillColor=none;" vertex="1" parent="1">
          <mxGeometry x="310" y="450" width="60" height="30" as="geometry" />
        </mxCell>
        <mxCell id="4_R9WV05cplaqw-ET_kS-22" value="service2" style="rounded=0;whiteSpace=wrap;html=1;fontSize=10;strokeWidth=2;fillColor=none;" vertex="1" parent="1">
          <mxGeometry x="310" y="500" width="60" height="30" as="geometry" />
        </mxCell>
        <mxCell id="4_R9WV05cplaqw-ET_kS-23" value="......" style="rounded=0;whiteSpace=wrap;html=1;fontSize=10;strokeWidth=2;fillColor=none;" vertex="1" parent="1">
          <mxGeometry x="310" y="550" width="60" height="30" as="geometry" />
        </mxCell>
        <mxCell id="4_R9WV05cplaqw-ET_kS-24" value="lottery1" style="rounded=0;whiteSpace=wrap;html=1;fontSize=10;strokeWidth=2;fillColor=none;" vertex="1" parent="1">
          <mxGeometry x="410" y="450" width="60" height="30" as="geometry" />
        </mxCell>
        <mxCell id="4_R9WV05cplaqw-ET_kS-25" value="lottery2" style="rounded=0;whiteSpace=wrap;html=1;fontSize=10;strokeWidth=2;fillColor=none;" vertex="1" parent="1">
          <mxGeometry x="410" y="500" width="60" height="30" as="geometry" />
        </mxCell>
        <mxCell id="4_R9WV05cplaqw-ET_kS-26" value="bigdata1" style="rounded=0;whiteSpace=wrap;html=1;fontSize=10;strokeWidth=2;fillColor=none;" vertex="1" parent="1">
          <mxGeometry x="410" y="550" width="60" height="30" as="geometry" />
        </mxCell>
        <mxCell id="4_R9WV05cplaqw-ET_kS-27" value="bigdata2" style="rounded=0;whiteSpace=wrap;html=1;fontSize=10;strokeWidth=2;fillColor=none;" vertex="1" parent="1">
          <mxGeometry x="410" y="600" width="60" height="30" as="geometry" />
        </mxCell>
        <mxCell id="4_R9WV05cplaqw-ET_kS-28" value="bms" style="rounded=0;whiteSpace=wrap;html=1;fontSize=10;strokeWidth=2;fillColor=none;" vertex="1" parent="1">
          <mxGeometry x="528" y="450" width="60" height="30" as="geometry" />
        </mxCell>
        <mxCell id="4_R9WV05cplaqw-ET_kS-29" value="cloudsql" style="rounded=1;whiteSpace=wrap;html=1;fontSize=10;strokeWidth=2;fillColor=none;" vertex="1" parent="1">
          <mxGeometry x="200" y="680" width="100" height="40" as="geometry" />
        </mxCell>
        <mxCell id="4_R9WV05cplaqw-ET_kS-50" style="edgeStyle=orthogonalEdgeStyle;curved=0;rounded=1;sketch=0;orthogonalLoop=1;jettySize=auto;html=1;endArrow=block;endFill=1;strokeWidth=2;" edge="1" parent="1" source="4_R9WV05cplaqw-ET_kS-30">
          <mxGeometry relative="1" as="geometry">
            <mxPoint x="405" y="790" as="targetPoint" />
          </mxGeometry>
        </mxCell>
        <mxCell id="4_R9WV05cplaqw-ET_kS-30" value="NAT" style="rhombus;whiteSpace=wrap;html=1;rounded=1;fontSize=10;strokeWidth=2;fillColor=none;arcSize=4;" vertex="1" parent="1">
          <mxGeometry x="380" y="675.63" width="50" height="48.75" as="geometry" />
        </mxCell>
        <mxCell id="4_R9WV05cplaqw-ET_kS-32" value="&lt;span style=&quot;&quot;&gt;bastion&lt;/span&gt;" style="rounded=1;whiteSpace=wrap;html=1;fontSize=10;strokeWidth=2;fillColor=none;dashed=1;" vertex="1" parent="1">
          <mxGeometry x="472.75" y="685" width="72" height="30" as="geometry" />
        </mxCell>
        <mxCell id="4_R9WV05cplaqw-ET_kS-44" value="" style="edgeStyle=orthogonalEdgeStyle;curved=0;rounded=1;sketch=0;orthogonalLoop=1;jettySize=auto;html=1;endArrow=block;endFill=1;strokeWidth=2;" edge="1" parent="1" source="4_R9WV05cplaqw-ET_kS-33" target="4_R9WV05cplaqw-ET_kS-32">
          <mxGeometry relative="1" as="geometry" />
        </mxCell>
        <mxCell id="4_R9WV05cplaqw-ET_kS-33" value="vpn&amp;nbsp;" style="rounded=1;whiteSpace=wrap;html=1;fontSize=10;strokeWidth=2;fillColor=none;dashed=1;" vertex="1" parent="1">
          <mxGeometry x="588" y="685" width="72" height="30" as="geometry" />
        </mxCell>
        <mxCell id="4_R9WV05cplaqw-ET_kS-38" value="" style="endArrow=block;startArrow=block;html=1;rounded=0;fontSize=10;startFill=1;endFill=1;" edge="1" parent="1">
          <mxGeometry width="50" height="50" relative="1" as="geometry">
            <mxPoint x="501" y="680" as="sourcePoint" />
            <mxPoint x="501" y="650" as="targetPoint" />
          </mxGeometry>
        </mxCell>
        <mxCell id="4_R9WV05cplaqw-ET_kS-45" value="互联网" style="ellipse;shape=cloud;whiteSpace=wrap;html=1;rounded=0;sketch=0;fillColor=#dae8fc;strokeColor=#6c8ebf;" vertex="1" parent="1">
          <mxGeometry x="350" y="790" width="100" height="70" as="geometry" />
        </mxCell>
        <mxCell id="4_R9WV05cplaqw-ET_kS-48" value="" style="endArrow=classic;html=1;rounded=1;sketch=0;strokeWidth=2;curved=0;" edge="1" parent="1">
          <mxGeometry width="50" height="50" relative="1" as="geometry">
            <mxPoint x="249.5" y="650" as="sourcePoint" />
            <mxPoint x="250" y="680" as="targetPoint" />
          </mxGeometry>
        </mxCell>
        <mxCell id="4_R9WV05cplaqw-ET_kS-49" value="" style="endArrow=classic;html=1;rounded=1;sketch=0;strokeWidth=2;curved=0;" edge="1" parent="1">
          <mxGeometry width="50" height="50" relative="1" as="geometry">
            <mxPoint x="402" y="650" as="sourcePoint" />
            <mxPoint x="402.5" y="680" as="targetPoint" />
          </mxGeometry>
        </mxCell>
        <mxCell id="4_R9WV05cplaqw-ET_kS-52" value="" style="sketch=0;aspect=fixed;pointerEvents=1;shadow=0;dashed=0;html=1;strokeColor=#6F0000;labelPosition=center;verticalLabelPosition=bottom;verticalAlign=top;align=center;fillColor=#a20025;shape=mxgraph.mscae.enterprise.firewall;rounded=0;fontColor=#ffffff;" vertex="1" parent="1">
          <mxGeometry x="660" y="687.5" width="28.41" height="25" as="geometry" />
        </mxCell>
        <mxCell id="4_R9WV05cplaqw-ET_kS-53" value="互联网" style="ellipse;shape=cloud;whiteSpace=wrap;html=1;rounded=0;sketch=0;fillColor=#dae8fc;strokeColor=#6c8ebf;" vertex="1" parent="1">
          <mxGeometry x="900" y="665" width="100" height="70" as="geometry" />
        </mxCell>
        <mxCell id="4_R9WV05cplaqw-ET_kS-58" value="" style="sketch=0;aspect=fixed;pointerEvents=1;shadow=0;dashed=0;html=1;strokeColor=#6F0000;labelPosition=center;verticalLabelPosition=bottom;verticalAlign=top;align=center;fillColor=#a20025;shape=mxgraph.mscae.enterprise.firewall;rounded=0;fontColor=#ffffff;" vertex="1" parent="1">
          <mxGeometry x="586" y="452.5" width="28.41" height="25" as="geometry" />
        </mxCell>
        <mxCell id="4_R9WV05cplaqw-ET_kS-67" style="edgeStyle=orthogonalEdgeStyle;rounded=0;sketch=0;orthogonalLoop=1;jettySize=auto;html=1;entryX=0.5;entryY=0;entryDx=0;entryDy=0;entryPerimeter=0;fontColor=#000000;endArrow=block;endFill=1;strokeWidth=2;" edge="1" parent="1" source="4_R9WV05cplaqw-ET_kS-59" target="4_R9WV05cplaqw-ET_kS-65">
          <mxGeometry relative="1" as="geometry">
            <Array as="points">
              <mxPoint x="235" y="170" />
              <mxPoint x="395" y="170" />
            </Array>
          </mxGeometry>
        </mxCell>
        <mxCell id="4_R9WV05cplaqw-ET_kS-59" value="" style="sketch=0;pointerEvents=1;shadow=0;dashed=0;html=1;strokeColor=none;fillColor=#505050;labelPosition=center;verticalLabelPosition=bottom;verticalAlign=top;outlineConnect=0;align=center;shape=mxgraph.office.devices.tv;rounded=0;" vertex="1" parent="1">
          <mxGeometry x="199" y="68.5" width="70" height="59" as="geometry" />
        </mxCell>
        <mxCell id="4_R9WV05cplaqw-ET_kS-60" value="特定IP（公司、VPN）" style="sketch=0;pointerEvents=1;shadow=0;dashed=0;html=1;strokeColor=none;fillColor=#505050;labelPosition=center;verticalLabelPosition=bottom;verticalAlign=top;outlineConnect=0;align=center;shape=mxgraph.office.devices.tv;rounded=0;" vertex="1" parent="1">
          <mxGeometry x="890" y="441" width="70" height="59" as="geometry" />
        </mxCell>
        <mxCell id="4_R9WV05cplaqw-ET_kS-61" value="" style="shape=flexArrow;endArrow=classic;html=1;rounded=1;sketch=0;fontColor=#999999;strokeWidth=2;curved=0;entryX=1;entryY=0.5;entryDx=0;entryDy=0;entryPerimeter=0;" edge="1" parent="1" target="4_R9WV05cplaqw-ET_kS-58">
          <mxGeometry width="50" height="50" relative="1" as="geometry">
            <mxPoint x="880" y="465" as="sourcePoint" />
            <mxPoint x="629.2" y="464.5" as="targetPoint" />
          </mxGeometry>
        </mxCell>
        <mxCell id="4_R9WV05cplaqw-ET_kS-62" value="http 8090" style="edgeLabel;html=1;align=center;verticalAlign=middle;resizable=0;points=[];fontColor=#000000;fontStyle=1" vertex="1" connectable="0" parent="4_R9WV05cplaqw-ET_kS-61">
          <mxGeometry x="-0.2105" y="-4" relative="1" as="geometry">
            <mxPoint as="offset" />
          </mxGeometry>
        </mxCell>
        <mxCell id="4_R9WV05cplaqw-ET_kS-63" value="" style="shape=flexArrow;endArrow=classic;html=1;rounded=1;sketch=0;fontColor=#999999;strokeWidth=2;curved=0;" edge="1" parent="1">
          <mxGeometry width="50" height="50" relative="1" as="geometry">
            <mxPoint x="889" y="701" as="sourcePoint" />
            <mxPoint x="687.4099999999999" y="701" as="targetPoint" />
          </mxGeometry>
        </mxCell>
        <mxCell id="4_R9WV05cplaqw-ET_kS-64" value="udp&amp;nbsp; 4500 500&amp;nbsp;" style="edgeLabel;html=1;align=center;verticalAlign=middle;resizable=0;points=[];fontColor=#000000;fontStyle=1" vertex="1" connectable="0" parent="4_R9WV05cplaqw-ET_kS-63">
          <mxGeometry x="-0.2105" y="-4" relative="1" as="geometry">
            <mxPoint as="offset" />
          </mxGeometry>
        </mxCell>
        <mxCell id="4_R9WV05cplaqw-ET_kS-71" style="edgeStyle=orthogonalEdgeStyle;rounded=0;sketch=0;orthogonalLoop=1;jettySize=auto;html=1;entryX=0.5;entryY=0;entryDx=0;entryDy=0;fontColor=#000000;endArrow=block;endFill=1;strokeWidth=2;" edge="1" parent="1" source="4_R9WV05cplaqw-ET_kS-65" target="4_R9WV05cplaqw-ET_kS-12">
          <mxGeometry relative="1" as="geometry" />
        </mxCell>
        <mxCell id="4_R9WV05cplaqw-ET_kS-65" value="" style="sketch=0;aspect=fixed;pointerEvents=1;shadow=0;dashed=0;html=1;strokeColor=#6F0000;labelPosition=center;verticalLabelPosition=bottom;verticalAlign=top;align=center;fillColor=#a20025;shape=mxgraph.mscae.enterprise.firewall;rounded=0;fontColor=#ffffff;" vertex="1" parent="1">
          <mxGeometry x="372.27" y="230" width="45.46" height="40" as="geometry" />
        </mxCell>
        <mxCell id="4_R9WV05cplaqw-ET_kS-78" value="Google 骨干网" style="text;html=1;strokeColor=none;fillColor=none;align=center;verticalAlign=middle;whiteSpace=wrap;rounded=0;sketch=0;fontColor=#000000;" vertex="1" parent="1">
          <mxGeometry x="120" y="270" width="100" height="30" as="geometry" />
        </mxCell>
        <mxCell id="4_R9WV05cplaqw-ET_kS-79" value="后端服务" style="text;html=1;strokeColor=none;fillColor=none;align=center;verticalAlign=middle;whiteSpace=wrap;rounded=0;sketch=0;fontColor=#000000;" vertex="1" parent="1">
          <mxGeometry x="169" y="380" width="71" height="30" as="geometry" />
        </mxCell>
      </root>
    </mxGraphModel>
  </diagram>
</mxfile>
